<?xml version="1.0" encoding="UTF-8"?>
<svg width="34px" height="26px" viewBox="0 0 34 26" version="1.1" xmlns="http://www.w3.org/2000/svg" xmlns:xlink="http://www.w3.org/1999/xlink">
    <!-- Generator: Sketch 50.2 (55047) - http://www.bohemiancoding.com/sketch -->
    <title>Group 7</title>
    <desc>Created with Sketch.</desc>
    <defs></defs>
    <g id="Page-1" stroke="none" stroke-width="1" fill="none" fill-rule="evenodd">
        <g id="Desktop" transform="translate(-53.000000, -50.000000)">
            <g id="Group-7" transform="translate(53.000000, 50.000000)">
                <path d="M0,0 L8.31262525,0 C9.22111343,0 10.129588,0.105931144 11.0380762,0.31779661 C11.9465643,0.529662076 12.7585135,0.88276589 13.4739479,1.37711864 C14.1893823,1.8714714 14.7685349,2.51882839 15.2114228,3.31920904 C15.6543108,4.11958969 15.8757515,5.12005049 15.8757515,6.32062147 C15.8757515,7.7095173 15.4896498,8.87475989 14.7174349,9.81638418 C13.9452199,10.7580085 12.9231861,11.4053655 11.6513026,11.7584746 L11.6513026,11.829096 C12.4235176,11.9232585 13.1389413,12.1292357 13.7975952,12.4470339 C14.4562491,12.7648321 15.0240457,13.1826716 15.501002,13.700565 C15.9779583,14.2184583 16.3470261,14.8305049 16.6082164,15.5367232 C16.8694068,16.2429414 17,17.0315399 17,17.9025424 C17,19.1031133 16.7615254,20.1506547 16.2845691,21.0451977 C15.8076128,21.9397408 15.1603247,22.6753738 14.3426854,23.2521186 C13.525046,23.8288635 12.5654698,24.2643582 11.4639279,24.5586158 C10.3623859,24.8528734 9.18704699,25 7.93787575,25 L0,25 L0,0 Z" id="B" fill="#222222"></path>
                <polygon id="Triangle" fill="#222222" points="21.5 0 34 25 9 25"></polygon>
                <polygon id="Line" fill="#FFFFFF" fill-rule="nonzero" points="9.14848391 26 8 25.4996089 19.8515161 0 21 0.500391071"></polygon>
            </g>
        </g>
    </g>
</svg>