<?xml version="1.0" encoding="UTF-8"?>
<svg width="20px" height="20px" viewBox="0 0 20 20" version="1.1" xmlns="http://www.w3.org/2000/svg" xmlns:xlink="http://www.w3.org/1999/xlink">
    <!-- Generator: Sketch 51.3 (57544) - http://www.bohemiancoding.com/sketch -->
    <title>menu-dots</title>
    <desc>Created with Sketch.</desc>
    <defs></defs>
    <g id="Page-1" stroke="none" stroke-width="1" fill="none" fill-rule="evenodd">
        <g id="menu-dots" fill="#FFFFFF">
            <path d="M16,2 C16,3.10457 16.8954,4 18,4 C19.1046,4 20,3.10457 20,2 C20,0.89543 19.1046,0 18,0 C16.8954,0 16,0.89543 16,2 Z M18,12 C16.8954,12 16,11.1046 16,10 C16,8.8954 16.8954,8 18,8 C19.1046,8 20,8.8954 20,10 C20,11.1046 19.1046,12 18,12 Z M18,20 C16.8954,20 16,19.1046 16,18 C16,16.8954 16.8954,16 18,16 C19.1046,16 20,16.8954 20,18 C20,19.1046 19.1046,20 18,20 Z M10,20 C8.8954,20 8,19.1046 8,18 C8,16.8954 8.8954,16 10,16 C11.1046,16 12,16.8954 12,18 C12,19.1046 11.1046,20 10,20 Z M8,10 C8,11.1046 8.8954,12 10,12 C11.1046,12 12,11.1046 12,10 C12,8.8954 11.1046,8 10,8 C8.8954,8 8,8.8954 8,10 Z M10,4 C8.8954,4 8,3.10457 8,2 C8,0.89543 8.8954,0 10,0 C11.1046,0 12,0.89543 12,2 C12,3.10457 11.1046,4 10,4 Z M0,18 C0,19.1046 0.89543,20 2,20 C3.10457,20 4,19.1046 4,18 C4,16.8954 3.10457,16 2,16 C0.89543,16 0,16.8954 0,18 Z M2,12 C0.89543,12 0,11.1046 0,10 C0,8.8954 0.89543,8 2,8 C3.10457,8 4,8.8954 4,10 C4,11.1046 3.10457,12 2,12 Z M0,2 C0,3.10457 0.89543,4 2,4 C3.10457,4 4,3.10457 4,2 C4,0.89543 3.10457,0 2,0 C0.89543,0 0,0.89543 0,2 Z" id="Shape"></path>
        </g>
    </g>
</svg>